<svg width="15" height="15" viewBox="0 0 15 15" fill="none" xmlns="http://www.w3.org/2000/svg">
<path d="M2.14286 -0.00878906C0.960938 -0.00878906 0 0.944141 0 2.11621V12.7412C0 13.9133 0.960938 14.8662 2.14286 14.8662H12.8571C14.0391 14.8662 15 13.9133 15 12.7412V2.11621C15 0.944141 14.0391 -0.00878906 12.8571 -0.00878906H2.14286ZM10.9085 3.56719L11.3906 4.04531C11.9129 4.56328 11.9129 5.40332 11.3906 5.92461L10.6741 6.63516L8.29688 4.27773L9.01339 3.56719C9.53571 3.04922 10.3828 3.04922 10.9085 3.56719ZM4.01451 8.52441L7.53683 5.03145L9.91406 7.38887L6.39174 10.8785C6.25446 11.0146 6.0837 11.1109 5.89286 11.1574L3.88058 11.6555C3.69643 11.702 3.50558 11.6488 3.37165 11.516C3.23772 11.3832 3.18415 11.1939 3.23103 11.0113L3.73326 9.01582C3.78013 8.82988 3.87723 8.65723 4.01451 8.52109V8.52441Z" fill="#374151"/>
</svg>
