<svg width="138" height="177" viewBox="0 0 138 177" fill="none" xmlns="http://www.w3.org/2000/svg">
<path d="M39.7015 114.835C47.0139 113.292 50.2742 111.318 54.54 105.75" stroke="#F9FAFB" stroke-width="8.17635" stroke-linecap="round"/>
<path d="M54.3886 157.685L80.8006 145.884C82.0832 145.311 82.9933 144.133 83.2242 142.747V142.747C83.2803 142.411 83.2951 142.069 83.2682 141.729L83.1013 139.614C82.9394 137.563 83.2894 135.501 84.2623 133.688C86.2622 129.963 89.7467 124.237 93.9076 119.529C99.7952 112.867 103.057 107.741 105.112 103.782C111.32 91.82 111.32 80.9182 109.655 70.3193C109.036 66.3825 98.1158 33.5255 59.8395 33.5256C34.7048 33.5257 16.838 53.6637 12.9012 70.3193L6.23902 92.7285L4.90258 96.5596C4.33103 98.198 4.74758 100.019 5.9746 101.246V101.246C6.82255 102.094 7.97261 102.57 9.17179 102.57H12.9012H15.7466C16.9037 102.57 17.9867 103.14 18.6423 104.094V104.094C19.045 104.679 19.2606 105.374 19.2606 106.084V109.535V113.991C19.2606 114.653 19.3066 115.311 19.4466 115.958C21.03 123.282 27.9445 136.834 48.7863 136.487" stroke="#F9FAFB" stroke-width="8.17635" stroke-linecap="round"/>
<circle cx="34.2506" cy="81.0696" r="7.26786" fill="#F9FAFB"/>
<path d="M63.322 103.025C63.322 106.453 60.5426 109.233 57.1141 109.233C53.6855 109.233 50.9061 106.453 50.9061 103.025C50.9061 99.5961 53.6855 96.8167 57.1141 96.8167C60.5426 96.8167 63.322 99.5961 63.322 103.025Z" fill="#F9FAFB"/>
<path d="M61.8361 166.679C64.4949 165.574 77.543 159.375 83.7348 156.413" stroke="#8B5CF6" stroke-width="8.17635" stroke-linecap="round"/>
<path d="M70.2871 172.89L83.8658 168.9" stroke="#8B5CF6" stroke-width="6.35938" stroke-linecap="round"/>
<path d="M61.6565 23.0781C61.4142 21.2612 61.5555 9.0976 61.6565 4M92.5449 29.1347L103.901 6.87686M111.472 48.8185L130.853 41.0964M120.708 75.1645H134.032" stroke="#8B5CF6" stroke-width="6.35938" stroke-linecap="round"/>
</svg>
